<?xml version="1.0" encoding="UTF-8" standalone="no"?>
<!-- Generator: Adobe Illustrator 21.1.0, SVG Export Plug-In . SVG Version: 6.00 Build 0)  -->

<svg
   version="1.1"
   id="Layer_1"
   width="229.89999"
   height="229.89999"
   viewBox="0 0 229.89999 229.9"
   enable-background="new 0 0 300 295.9"
   xml:space="preserve"
   sodipodi:docname="cwolreyla.svg"
   inkscape:version="1.3.2 (091e20e, 2023-11-25, custom)"
   xmlns:inkscape="http://www.inkscape.org/namespaces/inkscape"
   xmlns:sodipodi="http://sodipodi.sourceforge.net/DTD/sodipodi-0.dtd"
   xmlns="http://www.w3.org/2000/svg"
   xmlns:svg="http://www.w3.org/2000/svg"><defs
   id="defs24"><inkscape:path-effect
     effect="powerstroke"
     id="path-effect27"
     is_visible="true"
     lpeversion="1.3"
     scale_width="1"
     interpolator_type="CentripetalCatmullRom"
     interpolator_beta="0.75"
     start_linecap_type="round"
     end_linecap_type="round"
     offset_points="3.8733033,1.9770216"
     linejoin_type="spiro"
     miter_limit="4"
     not_jump="true"
     sort_points="true"
     message="&lt;b&gt;Ctrl + click&lt;/b&gt; on existing node and move it" /><inkscape:path-effect
     effect="simplify"
     id="path-effect26"
     is_visible="true"
     lpeversion="1.3"
     threshold="0.012"
     steps="1"
     smooth_angles="0"
     helper_size="0"
     simplify_individual_paths="false"
     simplify_just_coalesce="false"
     step="1" /><inkscape:path-effect
     effect="powerstroke"
     id="path-effect25"
     is_visible="true"
     lpeversion="1.3"
     scale_width="1"
     interpolator_type="CentripetalCatmullRom"
     interpolator_beta="0.75"
     start_linecap_type="round"
     end_linecap_type="round"
     offset_points="8.7894855,1.9770216"
     linejoin_type="spiro"
     miter_limit="4"
     not_jump="true"
     sort_points="true"
     message="&lt;b&gt;Ctrl + click&lt;/b&gt; on existing node and move it" /><inkscape:path-effect
     effect="simplify"
     id="path-effect24"
     is_visible="true"
     lpeversion="1.3"
     threshold="0.012"
     steps="1"
     smooth_angles="0"
     helper_size="0"
     simplify_individual_paths="false"
     simplify_just_coalesce="false"
     step="1" /></defs><sodipodi:namedview
   id="namedview24"
   pagecolor="#ffffff"
   bordercolor="#000000"
   borderopacity="0.25"
   inkscape:showpageshadow="2"
   inkscape:pageopacity="0.0"
   inkscape:pagecheckerboard="0"
   inkscape:deskcolor="#d1d1d1"
   inkscape:zoom="1.5119273"
   inkscape:cx="243.39795"
   inkscape:cy="167.00538"
   inkscape:window-width="1600"
   inkscape:window-height="877"
   inkscape:window-x="-8"
   inkscape:window-y="-8"
   inkscape:window-maximized="1"
   inkscape:current-layer="Layer_1" />
<polygon
   fill-rule="evenodd"
   clip-rule="evenodd"
   fill="#006536"
   points="246.3,93.2 248.2,96.6 250.3,99.9 252.4,103.1 254.7,106.3 257.1,109.3 259.6,112.3 262.2,115.1 264.9,117.9 267.7,120.5 270.6,123.1 273.6,125.5 276.7,127.9 279.4,129.7 279.1,130 277.6,132.3 276.1,134.5 274.7,136.9 273.3,139.2 272,141.6 270.8,144 269.6,146.5 268.5,149 267.5,151.6 266.5,154.1 265.5,156.7 264.7,159.4 263.9,162 263.2,164.7 262.6,167.5 262,170.2 261.5,173 261.1,175.8 260.7,178.6 260.4,181.4 260.2,184.3 260.1,187.2 260.1,190.1 260.1,193.5 260.3,196.9 260.6,200.2 261,203.6 261.4,206.9 262,210.1 262.7,213.4 263.5,216.5 264,218.3 261,219.1 256.7,220.4 252.6,221.9 248.5,223.6 244.5,225.4 240.6,227.4 236.8,229.6 233.1,231.9 229.5,234.3 226.1,236.9 222.7,239.7 219.4,242.5 216.3,245.5 213.3,248.6 210.4,251.9 207.7,255.2 205.1,258.7 202.6,262.3 200.3,266 198.2,269.8 196.2,273.7 195,276.2 193.3,275.3 189.3,273.6 185.3,272.1 181.2,270.7 176.9,269.5 172.7,268.5 168.3,267.6 163.9,267 159.4,266.5 154.9,266.2 150.4,266.1 145.8,266.2 141.2,266.5 136.7,267 132.3,267.7 127.9,268.5 123.6,269.6 119.3,270.8 115.2,272.2 111.1,273.8 107.1,275.5 105.4,276.3 104.3,273.9 102.3,270 100.1,266.2 97.8,262.5 95.4,258.9 92.8,255.4 90,252 87.2,248.8 84.1,245.6 81,242.6 77.8,239.7 74.4,237 70.9,234.4 67.3,231.9 63.6,229.6 59.8,227.4 55.9,225.4 51.9,223.6 47.8,221.9 43.6,220.4 39.4,219.1 36.1,218.2 36.5,216.7 37.3,213.6 38,210.4 38.5,207.2 39,203.9 39.3,200.7 39.6,197.4 39.8,194 39.8,190.7 39.8,187.8 39.7,184.9 39.5,182.1 39.2,179.3 38.9,176.4 38.4,173.6 37.9,170.9 37.4,168.1 36.7,165.4 36,162.7 35.2,160.1 34.4,157.4 33.5,154.8 32.5,152.2 31.4,149.7 30.3,147.2 29.1,144.8 27.9,142.3 26.6,139.9 25.3,137.6 23.8,135.3 22.4,133 20.8,130.7 20.4,130.2 23.1,128.3 26.1,126 29,123.5 31.8,121 34.6,118.3 37.2,115.6 39.7,112.7 42.2,109.8 44.5,106.8 46.7,103.7 48.8,100.5 50.8,97.2 52.7,93.9 54.5,90.5 56.1,87 57.6,83.4 59,79.8 60.2,76.1 61.3,72.3 62.3,68.5 63.1,64.6 63.8,60.7 64.4,56.8 64.7,53.3 66.4,53.4 68.6,53.6 70.7,53.7 72.9,53.8 75.2,53.8 78.7,53.8 82.3,53.6 85.8,53.3 89.3,52.9 92.7,52.3 96.2,51.7 99.5,50.9 102.9,50.1 106.2,49.1 109.4,48 112.6,46.8 115.8,45.6 118.9,44.2 121.9,42.7 124.9,41.2 127.8,39.5 130.7,37.7 133.5,35.9 136.3,34 138.9,32 141.6,29.9 144.1,27.7 146.6,25.5 149,23.2 151.2,20.9 153.4,23.2 155.8,25.4 158.3,27.6 160.8,29.6 163.4,31.6 166,33.6 168.7,35.4 171.5,37.2 174.3,38.9 177.2,40.5 180.2,41.9 183.1,43.4 186.2,44.7 189.3,45.9 192.4,47 195.6,48.1 198.8,49 202.1,49.8 205.4,50.5 208.8,51.2 212.2,51.7 215.6,52.1 219,52.3 222.5,52.5 225.9,52.6 228,52.6 230,52.5 232,52.4 233.9,52.3 234,52.3 234.3,55.7 234.9,59.7 235.6,63.7 236.4,67.6 237.4,71.4 238.6,75.3 239.9,79 241.3,82.7 242.8,86.3 244.5,89.8 "
   id="polygon1"
   transform="matrix(0.76717812,0,0,0.77702703,-0.02328219,-0.0222973)" /><polygon
   fill-rule="evenodd"
   clip-rule="evenodd"
   fill="#006536"
   points="259.6,112.3 262.2,115.1 264.9,117.9 267.7,120.5 270.6,123.1 273.6,125.5 276.7,127.9 279.4,129.7 279.1,130 277.6,132.3 276.1,134.5 274.7,136.9 273.3,139.2 272,141.6 270.8,144 269.6,146.5 268.5,149 267.5,151.6 266.5,154.1 265.5,156.7 264.7,159.4 263.9,162 263.2,164.7 262.6,167.5 262,170.2 261.5,173 261.1,175.8 260.7,178.6 260.4,181.4 260.2,184.3 260.1,187.2 260.1,190.1 260.1,193.5 260.3,196.9 260.6,200.2 261,203.6 261.4,206.9 262,210.1 262.7,213.4 263.5,216.5 264,218.3 261,219.1 256.7,220.4 252.6,221.9 248.5,223.6 244.5,225.4 240.6,227.4 236.8,229.6 233.1,231.9 229.5,234.3 226.1,236.9 222.7,239.7 219.4,242.5 216.3,245.5 213.3,248.6 210.4,251.9 207.7,255.2 205.1,258.7 202.6,262.3 200.3,266 198.2,269.8 196.2,273.7 195,276.2 193.3,275.3 189.3,273.6 185.3,272.1 181.2,270.7 176.9,269.5 172.7,268.5 168.3,267.6 163.9,267 159.4,266.5 154.9,266.2 150.4,266.1 145.8,266.2 141.2,266.5 136.7,267 132.3,267.7 127.9,268.5 123.6,269.6 119.3,270.8 115.2,272.2 111.1,273.8 107.1,275.5 105.4,276.3 104.3,273.9 102.3,270 100.1,266.2 97.8,262.5 95.4,258.9 92.8,255.4 90,252 87.2,248.8 84.1,245.6 81,242.6 77.8,239.7 74.4,237 70.9,234.4 67.3,231.9 63.6,229.6 59.8,227.4 55.9,225.4 51.9,223.6 47.8,221.9 43.6,220.4 39.4,219.1 36.1,218.2 36.5,216.7 37.3,213.6 38,210.4 38.5,207.2 39,203.9 39.3,200.7 39.6,197.4 39.8,194 39.8,190.7 39.8,187.8 39.7,184.9 39.5,182.1 39.2,179.3 38.9,176.4 38.4,173.6 37.9,170.9 37.4,168.1 36.7,165.4 36,162.7 35.2,160.1 34.4,157.4 33.5,154.8 32.5,152.2 31.4,149.7 30.3,147.2 29.1,144.8 27.9,142.3 26.6,139.9 25.3,137.6 23.8,135.3 22.4,133 20.8,130.7 20.4,130.2 23.1,128.3 26.1,126 29,123.5 31.8,121 34.6,118.3 37.2,115.6 39.7,112.7 42.2,109.8 44.5,106.8 46.7,103.7 48.8,100.5 50.8,97.2 52.7,93.9 54.5,90.5 56.1,87 57.6,83.4 59,79.8 60.2,76.1 61.3,72.3 62.3,68.5 63.1,64.6 63.8,60.7 64.4,56.8 64.7,53.3 66.4,53.4 68.6,53.6 70.7,53.7 72.9,53.8 75.2,53.8 78.7,53.8 82.3,53.6 85.8,53.3 89.3,52.9 92.7,52.3 96.2,51.7 99.5,50.9 102.9,50.1 106.2,49.1 109.4,48 112.6,46.8 115.8,45.6 118.9,44.2 121.9,42.7 124.9,41.2 127.8,39.5 130.7,37.7 133.5,35.9 136.3,34 138.9,32 141.6,29.9 144.1,27.7 146.6,25.5 149,23.2 151.2,20.9 153.4,23.2 155.8,25.4 158.3,27.6 160.8,29.6 163.4,31.6 166,33.6 168.7,35.4 171.5,37.2 174.3,38.9 177.2,40.5 180.2,41.9 183.1,43.4 186.2,44.7 189.3,45.9 192.4,47 195.6,48.1 198.8,49 202.1,49.8 205.4,50.5 208.8,51.2 212.2,51.7 215.6,52.1 219,52.3 222.5,52.5 225.9,52.6 228,52.6 230,52.5 232,52.4 233.9,52.3 234,52.3 234.3,55.7 234.9,59.7 235.6,63.7 236.4,67.6 237.4,71.4 238.6,75.3 239.9,79 241.3,82.7 242.8,86.3 244.5,89.8 246.3,93.2 248.2,96.6 250.3,99.9 252.4,103.1 254.7,106.3 257.1,109.3 "
   id="polygon1-1"
   transform="matrix(0.76717812,0,0,0.77702703,-0.33015344,-0.72162162)"
   style="fill:#008748;fill-opacity:1" />
<path
   style="fill:#0f1e3c;fill-opacity:1;fill-rule:evenodd;stroke:none;stroke-width:2.57491"
   d="M 115.7536,8.6828313 C 109.49165,12.76025 105.26018,18.840655 99.069594,23.020691 c -1.698647,1.146968 -3.082207,3.609155 -5.055757,4.608598 -8.607823,4.359163 -17.785243,6.952761 -27.301099,8.705128 -3.459118,0.637006 -14.948406,-1.683986 -18.200734,0.512067 -1.94151,1.310957 -4.353224,11.847424 -5.055759,14.337859 -1.47921,5.243701 -3.779704,10.728855 -6.06691,15.361992 -0.691145,1.400036 -1.909023,7.535459 -2.52788,9.729262 -1.939312,6.874729 -25.2787949,21.309374 -25.2787949,23.555052 0,2.019381 -11.9287513,-7.91416 10.8777139,3.413941 76.947965,38.22052 110.859766,38.20705 188.879256,-0.46621 9.04588,-4.483929 9.80737,-2.941391 9.04588,-4.483929 -3.90996,-7.920291 -6.38476,-5.377773 -12.13382,-8.705127 -2.51865,-1.457703 -13.5558,-14.145922 -15.16728,-17.410258 -1.29288,-2.618959 -0.60626,-5.938647 -1.51673,-8.705129 -1.13723,-3.455509 -3.59183,-6.572673 -4.04461,-10.241328 -0.4321,-3.501153 1.68166,-13.658754 -0.50557,-15.874058 -2.48697,-2.518898 -14.73178,-1.337875 -18.70631,-2.048266 -12.79695,-2.287277 -38.31109,-7.566866 -47.01856,-16.386125 -0.71499,-0.724171 0.12542,-2.056174 0,-3.072399 -0.3141,-2.545094 -3.53903,-7.1689297 -3.53903,-7.1689297 z"
   id="path27"
   sodipodi:nodetypes="csssssssssssssssssssc" /><path
   fill-rule="evenodd"
   clip-rule="evenodd"
   fill="#ffca05"
   d="m 184.02275,61.362838 1.07405,2.875 1.22748,2.797297 1.30421,2.719595 1.38092,2.641892 1.45763,2.641892 1.53436,2.564189 1.68779,2.486486 1.76451,2.408784 1.84123,2.331081 1.91795,2.253378 1.99466,2.253379 2.07138,2.175675 2.1481,2.020271 2.22481,1.942567 2.30154,1.942568 2.37825,1.787162 2.07138,1.476356 -0.15343,0.2331 -1.15077,1.70946 -1.15077,1.78717 -1.07405,1.78716 -1.07405,1.86486 -0.99733,1.86487 -0.92061,1.86486 -0.92062,1.94257 -0.84389,1.94257 -0.76718,1.94256 -0.76718,2.02027 -0.69046,2.02028 -0.61374,2.02027 -0.61374,2.09797 -0.53703,2.09797 -0.4603,2.09797 -0.46031,2.17568 -0.38359,2.17568 -0.30687,2.17567 -0.30687,2.17568 -0.23016,2.17567 -0.15343,2.25338 -0.0767,2.25338 v 2.25338 l 0.0767,2.64189 0.15343,2.64189 0.23016,2.64189 0.30687,2.56419 0.38359,2.56419 0.4603,2.56419 0.53703,2.48649 0.61374,2.48648 0.38359,1.32095 -2.30153,0.62162 -3.22215,1.01014 -3.22215,1.16554 -3.14543,1.32094 -3.06871,1.39865 -2.992,1.55406 -2.91527,1.70946 -2.83856,1.78716 -2.76184,1.94257 -2.68513,2.02027 -2.6084,2.09797 -2.45497,2.25338 -2.37826,2.33108 -2.30153,2.40878 -2.22482,2.48649 -2.07138,2.64189 -1.99466,2.71959 -1.91795,2.7973 -1.76451,2.875 -1.68779,2.9527 -1.53435,3.03041 -0.8439,1.94257 -1.3042,-0.62162 -3.06872,-1.32095 -3.14543,-1.16554 -3.14543,-1.08784 -3.22214,-0.93243 -3.29887,-0.77703 -3.29887,-0.62162 -3.37558,-0.54392 -3.4523,-0.38851 -3.4523,-0.23311 -3.52902,-0.0777 -3.52902,0.0777 -3.4523,0.23311 -3.4523,0.38851 -3.37559,0.54392 -3.375582,0.69932 -3.298866,0.85473 -3.222148,0.93244 -3.222148,1.08783 -3.14543,1.24325 -3.068713,1.32094 -1.304202,0.62163 -0.843896,-1.86487 -1.534357,-3.0304 -1.687791,-2.95271 -1.76451,-2.875 -1.917945,-2.79729 -1.994664,-2.7196 -2.45497,-2.7973 -2.224816,-2.56419 -2.301534,-2.40878 -2.378253,-2.33108 -2.45497,-2.25338 -2.608405,-2.09797 -2.685124,-2.02027 -2.761841,-1.94257 -2.838559,-1.78716 -2.915277,-1.70946 -2.991994,-1.55406 -3.068713,-1.47635 -3.14543,-1.32094 -3.222148,-1.16554 -3.298866,-1.01014 -2.45497,-0.69932 0.306871,-1.16554 0.613743,-2.40879 0.537024,-2.48648 0.460307,-2.48649 0.383589,-2.48649 0.306872,-2.56419 0.230153,-2.56418 0.153436,-2.56419 v -2.56419 -2.25338 l -0.07672,-2.25338 -0.153436,-2.25338 -0.230153,-2.17567 -0.230154,-2.17568 -0.306871,-2.17568 -0.383589,-2.17567 -0.460307,-2.09797 -0.460307,-2.09798 -0.537024,-2.09797 -0.613743,-2.09797 -0.613742,-2.02027 -0.690461,-2.02027 -0.767178,-2.02027 -0.767178,-1.94257 -0.843896,-1.94257 -0.920614,-1.94257 -0.920613,-1.86486 -0.997332,-1.86487 -1.074049,-1.86486 -1.07405,-1.78716 -1.150767,-1.78717 -1.150767,-1.70945 -0.306871,-0.38852 1.994663,-1.47635 2.301534,-1.787162 2.224817,-1.864865 2.148098,-1.942567 2.071381,-2.020271 1.994663,-2.097973 1.917946,-2.175675 1.841227,-2.253379 1.76451,-2.331081 1.687792,-2.408783 1.611074,-2.486487 1.534356,-2.564189 1.457638,-2.564189 1.380921,-2.641892 1.227485,-2.719595 1.150767,-2.797297 1.07405,-2.797297 0.920613,-2.875 0.843896,-2.952703 0.767178,-2.952703 0.613743,-3.030405 0.537025,-3.030406 0.383589,-3.108108 0.230153,-2.719594 1.304203,0.155405 1.687792,0.155405 1.687792,0.0777 1.687791,0.0777 h 1.76451 l 2.685124,-0.0777 2.685123,-0.155405 2.685123,-0.233108 2.685124,-0.310811 2.685123,-0.388514 2.608406,-0.466216 2.608405,-0.621622 2.531688,-0.699324 2.531688,-0.777027 2.45497,-0.85473 2.45497,-0.932432 2.378252,-1.010135 2.378252,-1.087838 2.301535,-1.165541 2.301534,-1.243243 2.224817,-1.320946 2.224818,-1.398648 2.1481,-1.398649 2.07138,-1.476351 2.07138,-1.554054 1.99466,-1.631757 1.91795,-1.70946 1.91794,-1.709459 1.84123,-1.787162 1.68779,-1.787162 1.76451,1.787162 1.84123,1.709459 1.91795,1.70946 1.91794,1.631756 1.99466,1.554054 1.99467,1.476352 2.07138,1.398648 2.1481,1.398649 2.1481,1.320946 2.22481,1.243243 2.22482,1.165541 2.30153,1.087838 2.30154,1.010135 2.37825,0.932432 2.37825,0.85473 2.45497,0.777027 2.45497,0.699324 2.53169,0.621622 2.53169,0.543919 2.53169,0.466216 2.6084,0.388514 2.60841,0.31081 2.6084,0.233109 2.68513,0.155405 2.6084,0.0777 h 1.61108 l 1.53435,-0.0777 1.53436,-0.0777 1.53435,-0.0777 h 0.0767 l 0.23016,2.641891 0.4603,3.108109 0.53703,3.108108 0.61374,3.030405 0.76718,3.030405 0.84389,2.952703 z m 32.45163,116.243242 c -30.38025,0.62162 -55.62041,22.8446 -61.45096,52.06081 -10.89393,-8.7804 -24.77986,-14.06419 -39.73983,-14.06419 -15.11341,0 -29.076052,5.36149 -40.046699,14.2973 -5.677118,-29.37162 -31.070714,-51.6723 -61.527685,-52.37162 4.90994,-9.16892 7.748499,-19.65879 7.748499,-30.84797 0,-19.27027 -8.362241,-36.52027 -21.557705,-48.486491 23.47565,-9.635135 40.046698,-32.945946 40.046698,-60.141892 0,-3.263513 -0.230154,-6.371622 -0.690461,-9.47973 6.521015,2.253379 13.502335,3.496622 20.71381,3.496622 23.552368,0 45.110073,-12.976351 56.234153,-32.168919 10.51034,17.871622 42.80854,31.236486 54.46965,31.236486 6.52101,0 12.88859,-1.010135 18.79586,-2.875 -0.38359,2.875 -0.61374,5.827703 -0.61374,8.858109 0,27.506756 17.10807,51.128378 41.04403,60.530405 -13.27218,11.88851 -21.63442,29.21622 -21.63442,48.48649 0.23015,11.5 3.14543,22.14527 8.2088,31.46959 z"
   id="path1"
   style="stroke-width:0.772087" />
<polygon
   fill-rule="evenodd"
   clip-rule="evenodd"
   fill="#ffffff"
   points="224.5,71.6 139.3,222.5 130.5,217.9 217.8,68.2 224,64.9 "
   id="polygon2"
   transform="matrix(0.76717812,0,0,0.77702703,-0.02328219,-0.0222973)" />
<polygon
   fill-rule="evenodd"
   clip-rule="evenodd"
   fill="#ffffff"
   points="73,72 156.4,219.7 165.2,215.1 79.7,68.5 73.5,65.2 "
   id="polygon3"
   transform="matrix(0.76717812,0,0,0.77702703,-0.02328219,-0.0222973)" />
<path
   fill-rule="evenodd"
   clip-rule="evenodd"
   fill="#006536"
   d="m 116.66451,151.73108 h -0.0767 c -2.07138,0 -3.68245,2.02027 -3.68245,4.58446 v 17.0946 c 0,5.9831 13.88592,6.06081 12.35156,0.2331 l -4.29619,-17.17229 c -0.61375,-2.56419 -2.22482,-4.66217 -4.2962,-4.73987"
   id="path3"
   style="fill:#008748;fill-opacity:1;stroke-width:0.772087" />
<polygon
   fill-rule="evenodd"
   clip-rule="evenodd"
   fill="#ffffff"
   points="151.2,199.1 151.1,199.3 150.9,199.5 150.8,199.7 150.7,200 150.6,200.3 150.6,200.6 150.5,200.9 150.5,201.3 150.5,223.1 150.6,223.4 150.6,223.6 150.7,223.7 150.8,223.9 150.9,224.1 151.1,224.3 151.4,224.5 151.7,224.7 152.1,224.9 152.6,225.1 153.1,225.3 153.6,225.4 154.2,225.6 154.8,225.7 155.4,225.7 156.1,225.7 156.7,225.7 157.3,225.7 157.8,225.6 158.3,225.5 158.8,225.4 159.2,225.2 159.6,225.1 159.8,224.9 160,224.8 160.1,224.7 160.2,224.6 160.2,224.6 160.2,224.6 160.2,224.5 160.1,224.2 154.5,202.2 154.4,201.8 154.2,201.3 154.1,200.9 153.9,200.5 153.7,200.2 153.5,199.9 153.3,199.6 153.1,199.3 152.9,199.1 152.7,199 152.6,198.8 152.4,198.7 152.3,198.7 152.2,198.7 152.1,198.6 152,198.6 151.9,198.6 151.8,198.6 151.7,198.7 151.6,198.7 151.5,198.8 151.4,198.8 151.3,199 "
   id="polygon4"
   transform="matrix(0.76717812,0,0,0.77702703,-0.02328219,-0.0222973)" />
<path
   fill-rule="evenodd"
   clip-rule="evenodd"
   fill="#006536"
   d="m 111.67785,151.73108 h 0.0767 c 2.07138,0 3.68245,2.02027 3.68245,4.58446 v 17.0946 c 0,5.9831 -13.88592,6.06081 -12.35156,0.2331 l 4.29619,-17.17229 c 0.69046,-2.56419 2.30154,-4.66217 4.2962,-4.73987"
   id="path4"
   style="fill:#008748;fill-opacity:1;stroke-width:0.772087" />
<polygon
   fill-rule="evenodd"
   clip-rule="evenodd"
   fill="#ffffff"
   points="146.6,199.1 146.7,199.3 146.8,199.5 146.9,199.7 147,200 147.1,200.3 147.2,200.6 147.2,200.9 147.2,201.3 147.2,223.1 147.2,223.4 147.2,223.6 147.1,223.7 147,223.9 146.9,224.1 146.7,224.3 146.4,224.5 146.1,224.7 145.7,224.9 145.2,225.1 144.7,225.3 144.1,225.4 143.5,225.6 142.9,225.6 142.3,225.7 141.7,225.7 141.1,225.7 140.5,225.7 139.9,225.6 139.4,225.5 138.9,225.4 138.5,225.2 138.2,225.1 137.9,224.9 137.7,224.8 137.6,224.7 137.6,224.6 137.6,224.6 137.6,224.6 137.6,224.5 137.6,224.2 143.2,202.3 143.4,201.8 143.5,201.3 143.7,200.9 143.9,200.5 144.1,200.2 144.3,199.9 144.5,199.6 144.7,199.3 144.8,199.1 145,198.9 145.2,198.8 145.3,198.7 145.4,198.7 145.5,198.7 145.6,198.6 145.8,198.6 145.9,198.6 146,198.6 146,198.7 146.1,198.7 146.2,198.8 146.3,198.8 146.5,199 "
   id="polygon5"
   transform="matrix(0.76717812,0,0,0.77702703,-0.02328219,-0.0222973)" />
<path
   fill-rule="evenodd"
   clip-rule="evenodd"
   fill="#006536"
   d="m 118.3523,156.62635 4.06605,16.00676 c 0.53702,2.25338 6.0607,1.78716 7.67178,0.85473 l 0.0767,-0.0777 c 1.61108,-0.93244 4.21948,-4.50676 2.992,-6.44933 l -8.43896,-12.74324 c -2.30153,-3.41892 -7.13476,-2.7196 -6.36758,2.40878"
   id="path5"
   style="fill:#008748;fill-opacity:1;stroke-width:0.772087" />
<polygon
   fill-rule="evenodd"
   clip-rule="evenodd"
   fill="#ffffff"
   points="169.3,219.4 169.4,219.3 169.6,219.1 169.7,218.9 169.9,218.7 170,218.5 170.1,218.2 170.3,218 170.4,217.8 170.5,217.6 170.6,217.4 170.6,217.3 170.7,217.1 170.7,216.9 170.8,216.8 170.8,216.7 170.8,216.7 159.9,200.6 159.7,200.3 159.6,200.1 159.4,199.9 159.2,199.8 159,199.6 158.9,199.5 158.7,199.4 158.5,199.3 158.4,199.3 158.3,199.2 158.1,199.2 158,199.2 158,199.2 157.9,199.2 157.8,199.2 157.8,199.2 157.8,199.2 157.8,199.2 157.8,199.2 157.7,199.2 157.7,199.2 157.7,199.2 157.7,199.2 157.7,199.3 157.7,199.4 157.6,199.5 157.6,199.6 157.5,199.8 157.5,200.1 157.5,200.4 157.5,200.7 157.6,201 162.7,220.8 162.8,220.8 162.9,220.9 163.2,220.9 163.4,220.9 163.7,221 164,221 164.2,221 164.6,221 164.9,221 165.2,221 165.5,221 165.8,220.9 166.1,220.9 166.5,220.9 166.7,220.8 167,220.8 167.3,220.7 167.5,220.7 167.7,220.6 167.9,220.5 168,220.5 168.1,220.5 168.2,220.4 168.2,220.4 168.2,220.4 168.3,220.3 168.4,220.3 168.5,220.2 168.7,220.1 168.8,219.9 168.9,219.8 169.1,219.6 "
   id="polygon6"
   transform="matrix(0.76717812,0,0,0.77702703,-0.02328219,-0.0222973)" />
<path
   fill-rule="evenodd"
   clip-rule="evenodd"
   fill="#006536"
   d="m 110.06678,156.62635 -4.06605,16.00676 c -0.53702,2.25338 -6.060703,1.78716 -7.671777,0.85473 l -0.07672,-0.0777 c -1.611074,-0.93244 -4.21948,-4.50676 -2.991995,-6.44933 l 8.438962,-12.74324 c 2.30153,-3.34122 7.13476,-2.7196 6.36758,2.40878"
   id="path6"
   style="fill:#008748;fill-opacity:1;stroke-width:0.772087" />
<polygon
   fill-rule="evenodd"
   clip-rule="evenodd"
   fill="#ffffff"
   points="128.5,219.4 128.4,219.3 128.2,219.1 128,218.9 127.9,218.7 127.8,218.5 127.6,218.2 127.5,218 127.4,217.8 127.3,217.6 127.2,217.4 127.1,217.3 127.1,217.1 127,216.9 127,216.8 127,216.7 127,216.7 137.8,200.6 138,200.3 138.2,200.1 138.4,199.9 138.6,199.8 138.7,199.6 138.9,199.5 139.1,199.4 139.2,199.3 139.4,199.3 139.5,199.2 139.6,199.2 139.7,199.2 139.8,199.2 139.9,199.2 139.9,199.2 140,199.2 140,199.2 140,199.2 140,199.2 140,199.2 140,199.2 140,199.2 140,199.2 140.1,199.3 140.1,199.4 140.1,199.5 140.2,199.6 140.2,199.8 140.2,200.1 140.2,200.4 140.2,200.7 140.2,201 135.1,220.8 135,220.8 134.8,220.9 134.6,220.9 134.4,220.9 134.1,221 133.8,221 133.5,221 133.2,221 132.9,221 132.6,221 132.2,221 131.9,220.9 131.6,220.9 131.3,220.9 131,220.8 130.7,220.8 130.5,220.7 130.3,220.7 130.1,220.6 129.9,220.5 129.8,220.5 129.7,220.5 129.6,220.4 129.6,220.4 129.5,220.4 129.5,220.3 129.4,220.3 129.2,220.2 129.1,220.1 129,219.9 128.8,219.8 128.7,219.6 "
   id="polygon7"
   transform="matrix(0.76717812,0,0,0.77702703,-0.02328219,-0.0222973)" />
<path
   fill-rule="evenodd"
   clip-rule="evenodd"
   fill="#ffffff"
   d="m 42.938692,82.653378 c 12.428286,28.983112 32.758506,65.270272 60.760508,71.641892 0,0 0,0 0,0.0777 l -8.43896,12.74325 c -0.153435,0.2331 -0.306871,0.54392 -0.306871,0.85473 C 59.356304,149.4 45.010073,114.35608 42.938692,82.653378"
   id="path7"
   style="stroke-width:0.772087" />
<path
   fill-rule="evenodd"
   clip-rule="evenodd"
   fill="#ffffff"
   d="m 185.48039,82.653378 c -12.42829,28.983112 -32.75851,65.270272 -60.76051,71.641892 0,0 0,0 0,0.0777 l 8.43896,12.74325 c 0.15343,0.2331 0.30687,0.54392 0.30687,0.85473 35.59707,-18.57095 49.9433,-53.61487 52.01468,-85.317572"
   id="path8"
   style="stroke-width:0.772087" />












<g
   id="g24"
   transform="matrix(0.76717812,0,0,0.77702703,-0.02328219,-0.0222973)">
	<polygon
   fill-rule="evenodd"
   clip-rule="evenodd"
   fill="#ffca05"
   points="172.5,241 169.7,236.4 177.7,231.6 "
   id="polygon16" />
	<polygon
   fill-rule="evenodd"
   clip-rule="evenodd"
   fill="#ffca05"
   points="178.1,233 180.4,237.4 175.9,246.4 173.4,242.2 "
   id="polygon17" />
	<polygon
   fill-rule="evenodd"
   clip-rule="evenodd"
   fill="#ffca05"
   points="181.2,238.7 183.6,243.8 179.8,252.6 176.8,247.9 "
   id="polygon18" />
	<polygon
   fill-rule="evenodd"
   clip-rule="evenodd"
   fill="#ffca05"
   points="186.7,249.8 180.7,254.2 184.5,245.4 "
   id="polygon19" />
	<path
   fill-rule="evenodd"
   clip-rule="evenodd"
   fill="#ffca05"
   d="m 187.6,251.3 c 2.8,5.3 -3.5,9 -6.1,4.1 z"
   id="path19" />
	<path
   fill-rule="evenodd"
   clip-rule="evenodd"
   fill="#ffca05"
   d="m 158.3,231 c -2.5,0.1 -4.3,2.1 -4.2,4.6 0.1,2.5 2.1,4.4 4.6,4.3 1.1,0 2,-0.4 2.6,-0.8 l 22.6,-12.6 0.5,-0.9 c 0.8,-0.9 1.4,-2.1 1.4,-3.4 -0.1,-2.5 -2.1,-4.3 -4.6,-4.2 -2.5,0.1 -4.4,2.1 -4.3,4.6 0,1 0.4,1.8 0.8,2.5 l -15.2,8.6 c -0.5,-1.6 -2.2,-2.8 -4.2,-2.7"
   id="path20" />
	<polygon
   fill-rule="evenodd"
   clip-rule="evenodd"
   fill="#ffca05"
   points="127.6,241 130.5,236.4 122.5,231.6 "
   id="polygon20" />
	<polygon
   fill-rule="evenodd"
   clip-rule="evenodd"
   fill="#ffca05"
   points="122,233 119.7,237.4 124.2,246.4 126.8,242.2 "
   id="polygon21" />
	<polygon
   fill-rule="evenodd"
   clip-rule="evenodd"
   fill="#ffca05"
   points="119,238.7 116.6,243.8 120.4,252.6 123.3,247.9 "
   id="polygon22" />
	<polygon
   fill-rule="evenodd"
   clip-rule="evenodd"
   fill="#ffca05"
   points="113.4,249.8 119.4,254.2 115.7,245.4 "
   id="polygon23" />
	<path
   fill-rule="evenodd"
   clip-rule="evenodd"
   fill="#ffca05"
   d="m 112.5,251.3 c -2.8,5.3 3.5,9 6.1,4.1 z"
   id="path23" />
	<path
   fill-rule="evenodd"
   clip-rule="evenodd"
   fill="#ffca05"
   d="m 141.8,231 c 2.5,0.1 4.3,2.1 4.2,4.6 -0.1,2.5 -2.1,4.4 -4.6,4.3 -1.1,0 -2,-0.4 -2.6,-0.8 l -22.6,-12.6 -0.5,-0.9 c -0.8,-0.9 -1.4,-2.1 -1.4,-3.4 0.1,-2.5 2.1,-4.3 4.6,-4.2 2.5,0.1 4.4,2.1 4.3,4.6 0,1 -0.4,1.8 -0.8,2.5 l 15.2,8.6 c 0.6,-1.6 2.2,-2.8 4.2,-2.7"
   id="path24" />
</g>
</svg>
