<?xml version="1.0" encoding="UTF-8" standalone="no"?>
<!-- Created with Inkscape (http://www.inkscape.org/) -->

<svg
   version="1.1"
   id="svg1"
   width="202.59999"
   height="102.6"
   viewBox="0 0 202.59999 102.6"
   sodipodi:docname="managuerve flag with margin.svg"
   inkscape:version="1.3.2 (091e20e, 2023-11-25, custom)"
   xml:space="preserve"
   xmlns:inkscape="http://www.inkscape.org/namespaces/inkscape"
   xmlns:sodipodi="http://sodipodi.sourceforge.net/DTD/sodipodi-0.dtd"
   xmlns="http://www.w3.org/2000/svg"
   xmlns:svg="http://www.w3.org/2000/svg"><defs
   id="defs1"><inkscape:path-effect
     effect="powerstroke"
     id="path-effect10"
     is_visible="true"
     lpeversion="1.3"
     scale_width="1"
     interpolator_type="CentripetalCatmullRom"
     interpolator_beta="0.75"
     start_linecap_type="round"
     end_linecap_type="round"
     offset_points="4.2527359,2.7700831"
     linejoin_type="spiro"
     miter_limit="4"
     not_jump="true"
     sort_points="true"
     message="&lt;b&gt;Ctrl + click&lt;/b&gt; on existing node and move it" /><inkscape:path-effect
     effect="simplify"
     id="path-effect9"
     is_visible="true"
     lpeversion="1.3"
     threshold="0.012"
     steps="1"
     smooth_angles="0"
     helper_size="0"
     simplify_individual_paths="false"
     simplify_just_coalesce="false"
     step="1" /><style
     type="text/css"
     id="style1"><![CDATA[
    .str0 {stroke:black;stroke-width:0.15;stroke-miterlimit:22.9256}
    .str1 {stroke:black;stroke-width:0.46;stroke-miterlimit:22.9256}
    .fil1 {fill:#f8d000}
    .fil3 {fill:none}
    .fil4 {fill:black}
    .fil5 {fill:none;fill-rule:nonzero}
   ]]></style><clipPath
     clipPathUnits="userSpaceOnUse"
     id="clipPath172"><path
       id="path172"
       style="fill:#ff0000;fill-opacity:1;fill-rule:nonzero;stroke:none"
       d="m 0,200 v 100 h 600 v -94.41211 c -0.0309,-0.20069 -0.0694,-0.3998 -0.0957,-0.60156 -0.072,-0.91931 0.008,-1.83425 0.0957,-2.74805 V 200 Z" /></clipPath><clipPath
     clipPathUnits="userSpaceOnUse"
     id="clipPath185"><path
       id="path186"
       style="fill:#ff0000;fill-opacity:1;fill-rule:nonzero;stroke:none"
       d="m -8.1738282,150.07181 c -0.059097,0.0671 -0.1189633,0.13259 -0.1933594,0.18164 0.012357,-0.0184 0.00745,-0.009 0.00977,-0.0117 -0.00284,0.001 -0.00401,-0.002 -0.00195,-0.0137 0.00164,-0.009 0.00922,-0.0383 0.00586,-0.0293 -0.00969,0.0258 -0.016951,0.0538 -0.025391,0.0801 -0.065606,0.19726 -0.1215132,0.39428 -0.1738282,0.5957 -0.098752,0.33395 -0.19756,0.66815 -0.2832031,1.00586 -0.1035705,1.6957 -0.2053004,3.39146 -0.3808594,5.08204 v 0.67968 c 0.1750783,-1.44955 0.3626982,-2.89708 0.5585938,-4.34375 0.1303087,-1.02508 0.3400634,-1.86339 1.2597656,-0.80664 0.038593,-0.80914 0.095255,-1.61775 0.2109375,-2.41992 z m 3.8925781,0 v 0.2168 0.87109 0.85547 0.66797 0.47656 0.4668 c 3e-7,0.18083 -1.8e-6,0.36214 0,0.54297 1.8e-6,0.15811 -1.41e-5,0.31651 0,0.47461 1.63e-5,0.15214 -8.03e-5,0.3049 0,0.45703 9.38e-5,0.14861 -5.975e-4,0.29671 0,0.44531 7.23e-4,0.15394 0.00103,0.30702 0.00391,0.46094 0.00342,0.1631 0.010023,0.3276 0.023437,0.49023 0.019971,0.23993 0.04671,0.47742 0.072266,0.7168 0.016626,0.25937 0.011839,0.51945 0.011719,0.7793 v 0.66601 0.47852 c 1.1e-6,0.1945 -6.8e-6,0.38753 0,0.58203 7.9e-6,0.16901 -4.17e-5,0.33881 0,0.50781 5.05e-5,0.17114 0.00165,0.34255 0.00195,0.51367 3.473e-4,0.18466 -3.3e-6,0.37004 0.00195,0.55469 0.00218,0.17372 0.00596,0.34596 0.013672,0.51953 0.00836,0.17746 0.018807,0.35416 0.050781,0.5293 0.038734,0.28547 0.055387,0.57116 0.044922,0.85937 -3.93e-5,0.23546 2.39e-4,0.47157 0,0.70703 -2.887e-4,0.24326 -4.327e-4,0.48722 -0.00195,0.73047 -0.00196,0.29309 -0.00274,0.586 -0.013672,0.87891 -0.012334,0.27 -0.032624,0.53862 -0.068359,0.80664 -0.037379,0.2778 -0.092853,0.55326 -0.1347656,0.83008 -0.021101,0.15543 0.00215,0.31432 -0.00586,0.4707 1.1e-6,0.17587 -6.4e-6,0.35147 0,0.52734 7.7e-6,0.1677 -4.4e-5,0.33622 0,0.50391 5.43e-5,0.1863 -3.865e-4,0.3723 0,0.55859 3.99e-4,0.1553 -4.33e-5,0.31152 0.00195,0.4668 0.00202,0.1348 0.00592,0.26783 0.015625,0.40235 0.00744,0.10267 0.01197,0.21295 0.033203,0.28515 0.047836,0.15121 0.083147,0.30302 0.097656,0.46094 0.032967,0.18019 0.087252,0.35929 0.076172,0.54492 -2.082e-4,0.16895 -8.788e-4,0.33691 -0.00195,0.50586 -0.00129,0.16141 -0.00235,0.32305 -0.00781,0.48438 -0.00742,0.20442 -0.017851,0.4105 -0.046875,0.61328 -0.022576,0.16327 -0.058032,0.32556 -0.0625,0.49023 -0.00496,0.25218 -0.011896,0.50398 -0.025391,0.75586 -0.01574,0.25139 -0.03951,0.50294 -0.078125,0.75195 -0.1704007,1.09883 -1.059154,1.23167 -1.3671875,0.58985 -0.048829,0.0182 -0.095086,0.0388 -0.1523437,0.0527 -0.304854,0.007 -0.579652,-0.0715 -0.8359375,-0.23828 -0.00839,-0.006 -0.015117,-0.0136 -0.023437,-0.0195 -0.018169,0.0657 -0.016262,0.13623 -0.037109,0.20117 -0.037864,0.11795 -0.087066,0.23178 -0.1308594,0.34766 -0.2765798,0.64654 -0.6827851,1.01764 -1.2851562,1.34961 -0.3454068,0.16705 -0.7048665,0.27662 -1.0898438,0.29101 -0.091373,0.003 -0.1864687,0.01 -0.2753906,-0.0117 -0.1873614,-0.0449 -0.3644123,-0.12374 -0.5468746,-0.18554 -0.530337,-0.26561 -1.038395,-0.5785 -1.476562,-0.98047 -0.09991,-0.0916 -0.204329,-0.17975 -0.287109,-0.28711 -0.121393,-0.15743 -0.213235,-0.33456 -0.320313,-0.50195 -0.06869,-0.14919 -0.156737,-0.29091 -0.207031,-0.44727 -6.31e-4,-0.002 -0.0014,-0.004 -0.002,-0.006 -0.01134,0.0558 -0.01987,0.11216 -0.03125,0.16797 -0.694142,3.53 -1.253153,7.08108 -1.810548,10.63281 H 596.56636 c -0.20763,-1.89681 -0.17307,-3.80052 0.0781,-5.7168 0.12277,-1.18942 0.31978,-2.46306 0.42969,-3.53515 -0.0375,-0.23749 -0.0823,-0.48021 -0.13867,-0.76172 -0.31503,-1.459 -0.45651,-2.94869 -0.55664,-4.43555 -0.021,-0.35842 -0.0303,-0.71757 -0.0449,-1.07617 -0.12568,-0.61149 -0.34866,-1.20033 -0.42968,-1.82226 -0.10059,-1.28428 0.0919,-2.55948 0.19336,-3.83594 0.0614,-0.76744 0.0813,-1.53715 0.0976,-2.30664 0.0162,-0.86272 0.0224,-1.72504 0.0254,-2.58789 0.003,-0.89448 0.003,-1.78912 0.004,-2.6836 5.5e-4,-1.07169 -9e-5,-2.14314 0,-3.21484 7e-5,-1.00439 -10e-6,-2.00928 0,-3.01367 v -0.87305 z m 644.3066401,0 c 0.0693,0.21321 0.14209,0.42502 0.21484,0.63672 0.0717,0.0227 0.14521,0.0375 0.2168,0.0606 v -0.69727 z m -0.0391,22.59961 c 0.15132,3.32918 -0.36771,6.72923 -0.85938,10.0332 -0.18873,1.06783 -0.35626,2.14943 -0.53515,3.23047 h 1.86523 v -13.03711 c -0.1567,-0.0663 -0.31351,-0.14587 -0.4707,-0.22656 z m -646.1933613,1.10547 c 0.00148,0.002 0.00242,0.004 0.00391,0.006 0.026183,0.0309 0.05373,0.061 0.080078,0.0918 0.0024,-0.0197 0.00734,-0.0389 0.00977,-0.0586 -0.031855,-0.0103 -0.063343,-0.023 -0.09375,-0.0391 z m -3.4355469,0.86328 c -0.060752,0.10726 -0.1357314,0.20374 -0.2285156,0.28906 -0.00542,0.0221 -0.010139,0.0443 -0.015625,0.0664 -0.01359,0.0547 0.013088,0.15806 -0.042969,0.16406 -0.1234892,0.0129 -0.2470412,0.0182 -0.3710932,0.0195 -0.01519,0.005 -0.0272,0.0127 -0.04297,0.0176 -0.09059,0.0283 -0.183026,0.007 -0.277344,-0.0215 -0.0033,-1.1e-4 -0.0065,1.1e-4 -0.0098,0 0.03374,0.0323 0.06429,0.0674 0.09766,0.0996 0.306822,0.29631 0.6798542,0.50953 1.052734,0.71289 -0.032922,-0.45051 -0.096082,-0.90059 -0.1621094,-1.34766 z m 618.7734382,0.15039 c -0.006,0.70814 -0.14932,1.30551 -0.29297,1.90039 0.0298,0.53677 0.0421,1.07504 0.0137,1.61719 v 3.92578 3.45703 c 0.078,0.0812 0.17071,0.16324 0.24414,0.24414 h 3.37305 c -10e-4,-0.0893 -0.008,-0.173 -0.008,-0.26367 v -8.6582 c -0.0689,-0.0227 -0.1368,-0.0458 -0.20313,-0.0781 -1.39231,-0.67774 -2.36856,-1.38804 -3.12695,-2.14453 z m 15.05469,7 v 3.88086 c 0,0.0907 -0.006,0.17441 -0.008,0.26367 h 0.36524 c -0.0544,-1.36389 -0.0669,-2.72118 -0.0527,-4.08594 -0.10187,-0.0183 -0.20309,-0.0392 -0.30468,-0.0586 z" /></clipPath><clipPath
     clipPathUnits="userSpaceOnUse"
     id="clipPath185-6"><path
       id="path186-4"
       style="fill:#ff0000;fill-opacity:1;fill-rule:nonzero;stroke:none"
       d="m -8.1738282,150.07181 c -0.059097,0.0671 -0.1189633,0.13259 -0.1933594,0.18164 0.012357,-0.0184 0.00745,-0.009 0.00977,-0.0117 -0.00284,0.001 -0.00401,-0.002 -0.00195,-0.0137 0.00164,-0.009 0.00922,-0.0383 0.00586,-0.0293 -0.00969,0.0258 -0.016951,0.0538 -0.025391,0.0801 -0.065606,0.19726 -0.1215132,0.39428 -0.1738282,0.5957 -0.098752,0.33395 -0.19756,0.66815 -0.2832031,1.00586 -0.1035705,1.6957 -0.2053004,3.39146 -0.3808594,5.08204 v 0.67968 c 0.1750783,-1.44955 0.3626982,-2.89708 0.5585938,-4.34375 0.1303087,-1.02508 0.3400634,-1.86339 1.2597656,-0.80664 0.038593,-0.80914 0.095255,-1.61775 0.2109375,-2.41992 z m 3.8925781,0 v 0.2168 0.87109 0.85547 0.66797 0.47656 0.4668 c 3e-7,0.18083 -1.8e-6,0.36214 0,0.54297 1.8e-6,0.15811 -1.41e-5,0.31651 0,0.47461 1.63e-5,0.15214 -8.03e-5,0.3049 0,0.45703 9.38e-5,0.14861 -5.975e-4,0.29671 0,0.44531 7.23e-4,0.15394 0.00103,0.30702 0.00391,0.46094 0.00342,0.1631 0.010023,0.3276 0.023437,0.49023 0.019971,0.23993 0.04671,0.47742 0.072266,0.7168 0.016626,0.25937 0.011839,0.51945 0.011719,0.7793 v 0.66601 0.47852 c 1.1e-6,0.1945 -6.8e-6,0.38753 0,0.58203 7.9e-6,0.16901 -4.17e-5,0.33881 0,0.50781 5.05e-5,0.17114 0.00165,0.34255 0.00195,0.51367 3.473e-4,0.18466 -3.3e-6,0.37004 0.00195,0.55469 0.00218,0.17372 0.00596,0.34596 0.013672,0.51953 0.00836,0.17746 0.018807,0.35416 0.050781,0.5293 0.038734,0.28547 0.055387,0.57116 0.044922,0.85937 -3.93e-5,0.23546 2.39e-4,0.47157 0,0.70703 -2.887e-4,0.24326 -4.327e-4,0.48722 -0.00195,0.73047 -0.00196,0.29309 -0.00274,0.586 -0.013672,0.87891 -0.012334,0.27 -0.032624,0.53862 -0.068359,0.80664 -0.037379,0.2778 -0.092853,0.55326 -0.1347656,0.83008 -0.021101,0.15543 0.00215,0.31432 -0.00586,0.4707 1.1e-6,0.17587 -6.4e-6,0.35147 0,0.52734 7.7e-6,0.1677 -4.4e-5,0.33622 0,0.50391 5.43e-5,0.1863 -3.865e-4,0.3723 0,0.55859 3.99e-4,0.1553 -4.33e-5,0.31152 0.00195,0.4668 0.00202,0.1348 0.00592,0.26783 0.015625,0.40235 0.00744,0.10267 0.01197,0.21295 0.033203,0.28515 0.047836,0.15121 0.083147,0.30302 0.097656,0.46094 0.032967,0.18019 0.087252,0.35929 0.076172,0.54492 -2.082e-4,0.16895 -8.788e-4,0.33691 -0.00195,0.50586 -0.00129,0.16141 -0.00235,0.32305 -0.00781,0.48438 -0.00742,0.20442 -0.017851,0.4105 -0.046875,0.61328 -0.022576,0.16327 -0.058032,0.32556 -0.0625,0.49023 -0.00496,0.25218 -0.011896,0.50398 -0.025391,0.75586 -0.01574,0.25139 -0.03951,0.50294 -0.078125,0.75195 -0.1704007,1.09883 -1.059154,1.23167 -1.3671875,0.58985 -0.048829,0.0182 -0.095086,0.0388 -0.1523437,0.0527 -0.304854,0.007 -0.579652,-0.0715 -0.8359375,-0.23828 -0.00839,-0.006 -0.015117,-0.0136 -0.023437,-0.0195 -0.018169,0.0657 -0.016262,0.13623 -0.037109,0.20117 -0.037864,0.11795 -0.087066,0.23178 -0.1308594,0.34766 -0.2765798,0.64654 -0.6827851,1.01764 -1.2851562,1.34961 -0.3454068,0.16705 -0.7048665,0.27662 -1.0898438,0.29101 -0.091373,0.003 -0.1864687,0.01 -0.2753906,-0.0117 -0.1873614,-0.0449 -0.3644123,-0.12374 -0.5468746,-0.18554 -0.530337,-0.26561 -1.038395,-0.5785 -1.476562,-0.98047 -0.09991,-0.0916 -0.204329,-0.17975 -0.287109,-0.28711 -0.121393,-0.15743 -0.213235,-0.33456 -0.320313,-0.50195 -0.06869,-0.14919 -0.156737,-0.29091 -0.207031,-0.44727 -6.31e-4,-0.002 -0.0014,-0.004 -0.002,-0.006 -0.01134,0.0558 -0.01987,0.11216 -0.03125,0.16797 -0.694142,3.53 -1.253153,7.08108 -1.810548,10.63281 H 596.56636 c -0.20763,-1.89681 -0.17307,-3.80052 0.0781,-5.7168 0.12277,-1.18942 0.31978,-2.46306 0.42969,-3.53515 -0.0375,-0.23749 -0.0823,-0.48021 -0.13867,-0.76172 -0.31503,-1.459 -0.45651,-2.94869 -0.55664,-4.43555 -0.021,-0.35842 -0.0303,-0.71757 -0.0449,-1.07617 -0.12568,-0.61149 -0.34866,-1.20033 -0.42968,-1.82226 -0.10059,-1.28428 0.0919,-2.55948 0.19336,-3.83594 0.0614,-0.76744 0.0813,-1.53715 0.0976,-2.30664 0.0162,-0.86272 0.0224,-1.72504 0.0254,-2.58789 0.003,-0.89448 0.003,-1.78912 0.004,-2.6836 5.5e-4,-1.07169 -9e-5,-2.14314 0,-3.21484 7e-5,-1.00439 -10e-6,-2.00928 0,-3.01367 v -0.87305 z m 644.3066401,0 c 0.0693,0.21321 0.14209,0.42502 0.21484,0.63672 0.0717,0.0227 0.14521,0.0375 0.2168,0.0606 v -0.69727 z m -0.0391,22.59961 c 0.15132,3.32918 -0.36771,6.72923 -0.85938,10.0332 -0.18873,1.06783 -0.35626,2.14943 -0.53515,3.23047 h 1.86523 v -13.03711 c -0.1567,-0.0663 -0.31351,-0.14587 -0.4707,-0.22656 z m -646.1933613,1.10547 c 0.00148,0.002 0.00242,0.004 0.00391,0.006 0.026183,0.0309 0.05373,0.061 0.080078,0.0918 0.0024,-0.0197 0.00734,-0.0389 0.00977,-0.0586 -0.031855,-0.0103 -0.063343,-0.023 -0.09375,-0.0391 z m -3.4355469,0.86328 c -0.060752,0.10726 -0.1357314,0.20374 -0.2285156,0.28906 -0.00542,0.0221 -0.010139,0.0443 -0.015625,0.0664 -0.01359,0.0547 0.013088,0.15806 -0.042969,0.16406 -0.1234892,0.0129 -0.2470412,0.0182 -0.3710932,0.0195 -0.01519,0.005 -0.0272,0.0127 -0.04297,0.0176 -0.09059,0.0283 -0.183026,0.007 -0.277344,-0.0215 -0.0033,-1.1e-4 -0.0065,1.1e-4 -0.0098,0 0.03374,0.0323 0.06429,0.0674 0.09766,0.0996 0.306822,0.29631 0.6798542,0.50953 1.052734,0.71289 -0.032922,-0.45051 -0.096082,-0.90059 -0.1621094,-1.34766 z m 618.7734382,0.15039 c -0.006,0.70814 -0.14932,1.30551 -0.29297,1.90039 0.0298,0.53677 0.0421,1.07504 0.0137,1.61719 v 3.92578 3.45703 c 0.078,0.0812 0.17071,0.16324 0.24414,0.24414 h 3.37305 c -10e-4,-0.0893 -0.008,-0.173 -0.008,-0.26367 v -8.6582 c -0.0689,-0.0227 -0.1368,-0.0458 -0.20313,-0.0781 -1.39231,-0.67774 -2.36856,-1.38804 -3.12695,-2.14453 z m 15.05469,7 v 3.88086 c 0,0.0907 -0.006,0.17441 -0.008,0.26367 h 0.36524 c -0.0544,-1.36389 -0.0669,-2.72118 -0.0527,-4.08594 -0.10187,-0.0183 -0.20309,-0.0392 -0.30468,-0.0586 z" /></clipPath></defs><sodipodi:namedview
   id="namedview1"
   pagecolor="#ffffff"
   bordercolor="#000000"
   borderopacity="0.25"
   inkscape:showpageshadow="2"
   inkscape:pageopacity="0.0"
   inkscape:pagecheckerboard="0"
   inkscape:deskcolor="#d1d1d1"
   inkscape:zoom="3.9057434"
   inkscape:cx="104.71758"
   inkscape:cy="50.822591"
   inkscape:window-width="1600"
   inkscape:window-height="877"
   inkscape:window-x="-8"
   inkscape:window-y="-8"
   inkscape:window-maximized="1"
   inkscape:current-layer="g1"><inkscape:page
     x="0"
     y="0"
     width="202.59999"
     height="102.6"
     id="page2"
     margin="0"
     bleed="0" /></sodipodi:namedview><g
   inkscape:groupmode="layer"
   inkscape:label="Image"
   id="g1"
   transform="translate(67.993024,1.3)"><rect
     style="fill:#ffd51a;fill-opacity:1;fill-rule:evenodd;stroke-width:0.1225;stroke-dasharray:none"
     id="rect1"
     width="200"
     height="100"
     x="-66.693024"
     y="0" /><path
     sodipodi:type="star"
     style="fill:#ffffff;fill-opacity:1;fill-rule:evenodd;stroke:#df2020;stroke-width:2.6;stroke-dasharray:none;stroke-opacity:1"
     id="path1"
     inkscape:flatsided="false"
     sodipodi:sides="6"
     sodipodi:cx="95.306435"
     sodipodi:cy="105.82067"
     sodipodi:r1="19.477861"
     sodipodi:r2="7.5566053"
     sodipodi:arg1="0.95864382"
     sodipodi:arg2="1.4822426"
     inkscape:rounded="0"
     inkscape:randomized="0"
     d="m 106.49901,121.76161 -10.524284,-8.41394 -8.87726,10.13652 2.024544,-13.32126 -13.217116,-2.61968 12.548825,-4.90732 -4.339856,-12.756194 10.52428,8.413939 8.877257,-10.136523 -2.02454,13.321268 13.21712,2.61967 -12.54883,4.90732 z"
     inkscape:transform-center-x="-0.055870328"
     inkscape:transform-center-y="-0.58383054"
     transform="matrix(0.33176793,0.03226695,-0.03226696,0.33176793,-58.61176,-22.486131)" /><path
     sodipodi:type="star"
     style="fill:#ffffff;fill-opacity:1;fill-rule:evenodd;stroke:#df2020;stroke-width:2.6;stroke-dasharray:none;stroke-opacity:1"
     id="path1-5"
     inkscape:flatsided="false"
     sodipodi:sides="6"
     sodipodi:cx="95.306435"
     sodipodi:cy="105.82067"
     sodipodi:r1="19.477861"
     sodipodi:r2="7.5566053"
     sodipodi:arg1="0.95864382"
     sodipodi:arg2="1.4822426"
     inkscape:rounded="0"
     inkscape:randomized="0"
     d="m 106.49901,121.76161 -10.524284,-8.41394 -8.87726,10.13652 2.024544,-13.32126 -13.217116,-2.61968 12.548825,-4.90732 -4.339856,-12.756194 10.52428,8.413939 8.877257,-10.136523 -2.02454,13.321268 13.21712,2.61967 -12.54883,4.90732 z"
     inkscape:transform-center-x="-0.046729454"
     inkscape:transform-center-y="-0.58463365"
     transform="matrix(0.3322321,0.02707293,-0.02707293,0.3322321,-59.214775,12.657013)" /><path
     sodipodi:type="star"
     style="fill:#ffffff;fill-opacity:1;fill-rule:evenodd;stroke:#df2020;stroke-width:2.6;stroke-dasharray:none;stroke-opacity:1"
     id="path1-5-1"
     inkscape:flatsided="false"
     sodipodi:sides="6"
     sodipodi:cx="95.306435"
     sodipodi:cy="105.82067"
     sodipodi:r1="19.477861"
     sodipodi:r2="7.5566053"
     sodipodi:arg1="0.95864382"
     sodipodi:arg2="1.4822426"
     inkscape:rounded="0"
     inkscape:randomized="0"
     d="m 106.49901,121.76161 -10.524284,-8.41394 -8.87726,10.13652 2.024544,-13.32126 -13.217116,-2.61968 12.548825,-4.90732 -4.339856,-12.756194 10.52428,8.413939 8.877257,-10.136523 -2.02454,13.321268 13.21712,2.61967 -12.54883,4.90732 z"
     inkscape:transform-center-x="-0.046728786"
     inkscape:transform-center-y="-0.58463345"
     transform="matrix(0.3322321,0.02707293,-0.02707293,0.3322321,-71.4731,-4.692008)" /><path
     sodipodi:type="star"
     style="fill:#ffffff;fill-opacity:1;fill-rule:evenodd;stroke:#df2020;stroke-width:2.6;stroke-dasharray:none;stroke-opacity:1"
     id="path1-5-1-5"
     inkscape:flatsided="false"
     sodipodi:sides="6"
     sodipodi:cx="95.306435"
     sodipodi:cy="105.82067"
     sodipodi:r1="19.477861"
     sodipodi:r2="7.5566053"
     sodipodi:arg1="0.95864382"
     sodipodi:arg2="1.4822426"
     inkscape:rounded="0"
     inkscape:randomized="0"
     d="m 106.49901,121.76161 -10.524284,-8.41394 -8.87726,10.13652 2.024544,-13.32126 -13.217116,-2.61968 12.548825,-4.90732 -4.339856,-12.756194 10.52428,8.413939 8.877257,-10.136523 -2.02454,13.321268 13.21712,2.61967 -12.54883,4.90732 z"
     inkscape:transform-center-x="-0.042025234"
     inkscape:transform-center-y="-0.58499123"
     transform="matrix(0.33243916,0.02439919,-0.02439919,0.33243915,-47.312402,-4.4594513)" /><rect
     style="fill:none;fill-opacity:1;fill-rule:evenodd;stroke:#ffffff;stroke-width:2.6;stroke-dasharray:none;stroke-opacity:1"
     id="rect3"
     width="200"
     height="100"
     x="-66.693024"
     y="0" /></g>




</svg>
