<?xml version="1.0" encoding="UTF-8" standalone="no"?>
<!-- Generator: Adobe Illustrator 21.1.0, SVG Export Plug-In . SVG Version: 6.00 Build 0)  -->

<svg
   version="1.1"
   id="Layer_1"
   width="300"
   height="295.9"
   viewBox="0 0 300 295.9"
   enable-background="new 0 0 300 295.9"
   xml:space="preserve"
   sodipodi:docname="yusauya y kiras (military of kyras) emblem.svg"
   inkscape:version="1.3.2 (091e20e, 2023-11-25, custom)"
   xmlns:inkscape="http://www.inkscape.org/namespaces/inkscape"
   xmlns:sodipodi="http://sodipodi.sourceforge.net/DTD/sodipodi-0.dtd"
   xmlns="http://www.w3.org/2000/svg"
   xmlns:svg="http://www.w3.org/2000/svg"><defs
   id="defs24"><inkscape:path-effect
     effect="powerstroke"
     id="path-effect27"
     is_visible="true"
     lpeversion="1.3"
     scale_width="1"
     interpolator_type="CentripetalCatmullRom"
     interpolator_beta="0.75"
     start_linecap_type="round"
     end_linecap_type="round"
     offset_points="3.8733033,1.9770216"
     linejoin_type="spiro"
     miter_limit="4"
     not_jump="true"
     sort_points="true"
     message="&lt;b&gt;Ctrl + click&lt;/b&gt; on existing node and move it" /><inkscape:path-effect
     effect="simplify"
     id="path-effect26"
     is_visible="true"
     lpeversion="1.3"
     threshold="0.012"
     steps="1"
     smooth_angles="0"
     helper_size="0"
     simplify_individual_paths="false"
     simplify_just_coalesce="false"
     step="1" /><inkscape:path-effect
     effect="powerstroke"
     id="path-effect25"
     is_visible="true"
     lpeversion="1.3"
     scale_width="1"
     interpolator_type="CentripetalCatmullRom"
     interpolator_beta="0.75"
     start_linecap_type="round"
     end_linecap_type="round"
     offset_points="8.7894855,1.9770216"
     linejoin_type="spiro"
     miter_limit="4"
     not_jump="true"
     sort_points="true"
     message="&lt;b&gt;Ctrl + click&lt;/b&gt; on existing node and move it" /><inkscape:path-effect
     effect="simplify"
     id="path-effect24"
     is_visible="true"
     lpeversion="1.3"
     threshold="0.012"
     steps="1"
     smooth_angles="0"
     helper_size="0"
     simplify_individual_paths="false"
     simplify_just_coalesce="false"
     step="1" /></defs><sodipodi:namedview
   id="namedview24"
   pagecolor="#ffffff"
   bordercolor="#000000"
   borderopacity="0.25"
   inkscape:showpageshadow="2"
   inkscape:pageopacity="0.0"
   inkscape:pagecheckerboard="0"
   inkscape:deskcolor="#d1d1d1"
   inkscape:zoom="0.92984542"
   inkscape:cx="126.90281"
   inkscape:cy="168.30755"
   inkscape:window-width="1600"
   inkscape:window-height="877"
   inkscape:window-x="-8"
   inkscape:window-y="-8"
   inkscape:window-maximized="1"
   inkscape:current-layer="Layer_1" />
<polygon
   fill-rule="evenodd"
   clip-rule="evenodd"
   fill="#006536"
   points="239.9,79 241.3,82.7 242.8,86.3 244.5,89.8 246.3,93.2   248.2,96.6 250.3,99.9 252.4,103.1 254.7,106.3 257.1,109.3 259.6,112.3 262.2,115.1 264.9,117.9 267.7,120.5 270.6,123.1   273.6,125.5 276.7,127.9 279.4,129.7 279.1,130 277.6,132.3 276.1,134.5 274.7,136.9 273.3,139.2 272,141.6 270.8,144 269.6,146.5   268.5,149 267.5,151.6 266.5,154.1 265.5,156.7 264.7,159.4 263.9,162 263.2,164.7 262.6,167.5 262,170.2 261.5,173 261.1,175.8   260.7,178.6 260.4,181.4 260.2,184.3 260.1,187.2 260.1,190.1 260.1,193.5 260.3,196.9 260.6,200.2 261,203.6 261.4,206.9   262,210.1 262.7,213.4 263.5,216.5 264,218.3 261,219.1 256.7,220.4 252.6,221.9 248.5,223.6 244.5,225.4 240.6,227.4 236.8,229.6   233.1,231.9 229.5,234.3 226.1,236.9 222.7,239.7 219.4,242.5 216.3,245.5 213.3,248.6 210.4,251.9 207.7,255.2 205.1,258.7   202.6,262.3 200.3,266 198.2,269.8 196.2,273.7 195,276.2 193.3,275.3 189.3,273.6 185.3,272.1 181.2,270.7 176.9,269.5   172.7,268.5 168.3,267.6 163.9,267 159.4,266.5 154.9,266.2 150.4,266.1 145.8,266.2 141.2,266.5 136.7,267 132.3,267.7   127.9,268.5 123.6,269.6 119.3,270.8 115.2,272.2 111.1,273.8 107.1,275.5 105.4,276.3 104.3,273.9 102.3,270 100.1,266.2   97.8,262.5 95.4,258.9 92.8,255.4 90,252 87.2,248.8 84.1,245.6 81,242.6 77.8,239.7 74.4,237 70.9,234.4 67.3,231.9 63.6,229.6   59.8,227.4 55.9,225.4 51.9,223.6 47.8,221.9 43.6,220.4 39.4,219.1 36.1,218.2 36.5,216.7 37.3,213.6 38,210.4 38.5,207.2   39,203.9 39.3,200.7 39.6,197.4 39.8,194 39.8,190.7 39.8,187.8 39.7,184.9 39.5,182.1 39.2,179.3 38.9,176.4 38.4,173.6   37.9,170.9 37.4,168.1 36.7,165.4 36,162.7 35.2,160.1 34.4,157.4 33.5,154.8 32.5,152.2 31.4,149.7 30.3,147.2 29.1,144.8   27.9,142.3 26.6,139.9 25.3,137.6 23.8,135.3 22.4,133 20.8,130.7 20.4,130.2 23.1,128.3 26.1,126 29,123.5 31.8,121 34.6,118.3   37.2,115.6 39.7,112.7 42.2,109.8 44.5,106.8 46.7,103.7 48.8,100.5 50.8,97.2 52.7,93.9 54.5,90.5 56.1,87 57.6,83.4 59,79.8   60.2,76.1 61.3,72.3 62.3,68.5 63.1,64.6 63.8,60.7 64.4,56.8 64.7,53.3 66.4,53.4 68.6,53.6 70.7,53.7 72.9,53.8 75.2,53.8   78.7,53.8 82.3,53.6 85.8,53.3 89.3,52.9 92.7,52.3 96.2,51.7 99.5,50.9 102.9,50.1 106.2,49.1 109.4,48 112.6,46.8 115.8,45.6   118.9,44.2 121.9,42.7 124.9,41.2 127.8,39.5 130.7,37.7 133.5,35.9 136.3,34 138.9,32 141.6,29.9 144.1,27.7 146.6,25.5 149,23.2   151.2,20.9 153.4,23.2 155.8,25.4 158.3,27.6 160.8,29.6 163.4,31.6 166,33.6 168.7,35.4 171.5,37.2 174.3,38.9 177.2,40.5   180.2,41.9 183.1,43.4 186.2,44.7 189.3,45.9 192.4,47 195.6,48.1 198.8,49 202.1,49.8 205.4,50.5 208.8,51.2 212.2,51.7   215.6,52.1 219,52.3 222.5,52.5 225.9,52.6 228,52.6 230,52.5 232,52.4 233.9,52.3 234,52.3 234.3,55.7 234.9,59.7 235.6,63.7   236.4,67.6 237.4,71.4 238.6,75.3 "
   id="polygon1" /><polygon
   fill-rule="evenodd"
   clip-rule="evenodd"
   fill="#006536"
   points="250.3,99.9 252.4,103.1 254.7,106.3 257.1,109.3 259.6,112.3 262.2,115.1 264.9,117.9 267.7,120.5 270.6,123.1 273.6,125.5 276.7,127.9 279.4,129.7 279.1,130 277.6,132.3 276.1,134.5 274.7,136.9 273.3,139.2 272,141.6 270.8,144 269.6,146.5 268.5,149 267.5,151.6 266.5,154.1 265.5,156.7 264.7,159.4 263.9,162 263.2,164.7 262.6,167.5 262,170.2 261.5,173 261.1,175.8 260.7,178.6 260.4,181.4 260.2,184.3 260.1,187.2 260.1,190.1 260.1,193.5 260.3,196.9 260.6,200.2 261,203.6 261.4,206.9 262,210.1 262.7,213.4 263.5,216.5 264,218.3 261,219.1 256.7,220.4 252.6,221.9 248.5,223.6 244.5,225.4 240.6,227.4 236.8,229.6 233.1,231.9 229.5,234.3 226.1,236.9 222.7,239.7 219.4,242.5 216.3,245.5 213.3,248.6 210.4,251.9 207.7,255.2 205.1,258.7 202.6,262.3 200.3,266 198.2,269.8 196.2,273.7 195,276.2 193.3,275.3 189.3,273.6 185.3,272.1 181.2,270.7 176.9,269.5 172.7,268.5 168.3,267.6 163.9,267 159.4,266.5 154.9,266.2 150.4,266.1 145.8,266.2 141.2,266.5 136.7,267 132.3,267.7 127.9,268.5 123.6,269.6 119.3,270.8 115.2,272.2 111.1,273.8 107.1,275.5 105.4,276.3 104.3,273.9 102.3,270 100.1,266.2 97.8,262.5 95.4,258.9 92.8,255.4 90,252 87.2,248.8 84.1,245.6 81,242.6 77.8,239.7 74.4,237 70.9,234.4 67.3,231.9 63.6,229.6 59.8,227.4 55.9,225.4 51.9,223.6 47.8,221.9 43.6,220.4 39.4,219.1 36.1,218.2 36.5,216.7 37.3,213.6 38,210.4 38.5,207.2 39,203.9 39.3,200.7 39.6,197.4 39.8,194 39.8,190.7 39.8,187.8 39.7,184.9 39.5,182.1 39.2,179.3 38.9,176.4 38.4,173.6 37.9,170.9 37.4,168.1 36.7,165.4 36,162.7 35.2,160.1 34.4,157.4 33.5,154.8 32.5,152.2 31.4,149.7 30.3,147.2 29.1,144.8 27.9,142.3 26.6,139.9 25.3,137.6 23.8,135.3 22.4,133 20.8,130.7 20.4,130.2 23.1,128.3 26.1,126 29,123.5 31.8,121 34.6,118.3 37.2,115.6 39.7,112.7 42.2,109.8 44.5,106.8 46.7,103.7 48.8,100.5 50.8,97.2 52.7,93.9 54.5,90.5 56.1,87 57.6,83.4 59,79.8 60.2,76.1 61.3,72.3 62.3,68.5 63.1,64.6 63.8,60.7 64.4,56.8 64.7,53.3 66.4,53.4 68.6,53.6 70.7,53.7 72.9,53.8 75.2,53.8 78.7,53.8 82.3,53.6 85.8,53.3 89.3,52.9 92.7,52.3 96.2,51.7 99.5,50.9 102.9,50.1 106.2,49.1 109.4,48 112.6,46.8 115.8,45.6 118.9,44.2 121.9,42.7 124.9,41.2 127.8,39.5 130.7,37.7 133.5,35.9 136.3,34 138.9,32 141.6,29.9 144.1,27.7 146.6,25.5 149,23.2 151.2,20.9 153.4,23.2 155.8,25.4 158.3,27.6 160.8,29.6 163.4,31.6 166,33.6 168.7,35.4 171.5,37.2 174.3,38.9 177.2,40.5 180.2,41.9 183.1,43.4 186.2,44.7 189.3,45.9 192.4,47 195.6,48.1 198.8,49 202.1,49.8 205.4,50.5 208.8,51.2 212.2,51.7 215.6,52.1 219,52.3 222.5,52.5 225.9,52.6 228,52.6 230,52.5 232,52.4 233.9,52.3 234,52.3 234.3,55.7 234.9,59.7 235.6,63.7 236.4,67.6 237.4,71.4 238.6,75.3 239.9,79 241.3,82.7 242.8,86.3 244.5,89.8 246.3,93.2 248.2,96.6 "
   id="polygon1-1"
   transform="translate(-0.4,-0.9)"
   style="fill:#008748;fill-opacity:1" />
<path
   style="fill:#0f1e3c;fill-opacity:1;fill-rule:evenodd;stroke:none;stroke-width:3.335"
   d="m 150.91265,11.203122 c -8.16232,5.247461 -13.67795,13.072678 -21.74724,18.452202 -2.21415,1.476098 -4.01759,4.644826 -6.59007,5.931065 -11.22011,5.610054 -23.182677,8.947902 -35.586389,11.203122 -4.508885,0.819798 -19.484922,-2.167217 -23.72426,0.659008 -2.530717,1.687144 -5.674334,15.247119 -6.590072,18.452201 -1.928118,6.748415 -4.926763,13.80757 -7.908086,19.770216 -0.900892,1.801785 -2.48837,9.697807 -3.295036,12.521137 -2.527851,8.847477 -32.95036,27.424237 -32.95036,30.314327 0,2.59886 -15.548868,-10.18518 14.178863,4.3936 100.3,49.18814 144.50329,49.17081 246.2,-0.6 11.79111,-5.77062 12.7837,-3.78544 11.79111,-5.77062 -5.09654,-10.19307 -8.32239,-6.92096 -15.81617,-11.20312 -3.28301,-1.876 -17.66969,-18.205186 -19.77022,-22.406244 -1.68524,-3.370487 -0.79024,-7.642781 -1.97702,-11.203123 -1.48236,-4.44709 -4.68188,-8.458745 -5.27206,-13.180144 -0.56323,-4.505832 2.192,-17.578222 -0.659,-20.429223 -3.24172,-3.241712 -19.20256,-1.721786 -24.38327,-2.636029 -16.68055,-2.943626 -49.93767,-9.738227 -61.28767,-21.08823 -0.93198,-0.931977 0.16348,-2.646207 0,-3.954044 -0.40943,-3.275425 -4.61305,-9.226101 -4.61305,-9.226101 z"
   id="path27"
   sodipodi:nodetypes="csssssssssssssssssssc" /><path
   fill-rule="evenodd"
   clip-rule="evenodd"
   fill="#FFCA05"
   d="M239.9,79l1.4,3.7l1.6,3.6l1.7,3.5l1.8,3.4l1.9,3.4l2,3.3l2.2,3.2  l2.3,3.1l2.4,3l2.5,2.9l2.6,2.9l2.7,2.8l2.8,2.6l2.9,2.5l3,2.5l3.1,2.3l2.7,1.9l-0.2,0.3l-1.5,2.2l-1.5,2.3l-1.4,2.3l-1.4,2.4  l-1.3,2.4l-1.2,2.4l-1.2,2.5l-1.1,2.5l-1,2.5l-1,2.6l-0.9,2.6l-0.8,2.6l-0.8,2.7l-0.7,2.7l-0.6,2.7l-0.6,2.8l-0.5,2.8l-0.4,2.8  l-0.4,2.8l-0.3,2.8l-0.2,2.9l-0.1,2.9l0,2.9l0.1,3.4l0.2,3.4l0.3,3.4l0.4,3.3l0.5,3.3l0.6,3.3l0.7,3.2l0.8,3.2l0.5,1.7l-3,0.8  l-4.2,1.3l-4.2,1.5l-4.1,1.7l-4,1.8l-3.9,2l-3.8,2.2l-3.7,2.3l-3.6,2.5l-3.5,2.6l-3.4,2.7l-3.2,2.9l-3.1,3l-3,3.1l-2.9,3.2l-2.7,3.4  l-2.6,3.5l-2.5,3.6l-2.3,3.7l-2.2,3.8l-2,3.9l-1.1,2.5l-1.7-0.8l-4-1.7l-4.1-1.5l-4.1-1.4l-4.2-1.2l-4.3-1l-4.3-0.8l-4.4-0.7  l-4.5-0.5l-4.5-0.3l-4.6-0.1l-4.6,0.1l-4.5,0.3l-4.5,0.5l-4.4,0.7l-4.4,0.9l-4.3,1.1l-4.2,1.2l-4.2,1.4l-4.1,1.6l-4,1.7l-1.7,0.8  l-1.1-2.4l-2-3.9l-2.2-3.8l-2.3-3.7l-2.5-3.6l-2.6-3.5L90,252l-2.9-3.3l-3-3.1l-3.1-3l-3.2-2.9l-3.4-2.7l-3.5-2.6l-3.6-2.5l-3.7-2.3  l-3.8-2.2l-3.9-2l-4-1.9l-4.1-1.7l-4.2-1.5l-4.3-1.3l-3.2-0.9l0.4-1.5l0.8-3.1l0.7-3.2l0.6-3.2l0.5-3.2l0.4-3.3l0.3-3.3l0.2-3.3  l0-3.3l0-2.9l-0.1-2.9l-0.2-2.9l-0.3-2.8l-0.3-2.8l-0.4-2.8l-0.5-2.8l-0.6-2.7l-0.6-2.7l-0.7-2.7l-0.8-2.7l-0.8-2.6l-0.9-2.6l-1-2.6  l-1-2.5l-1.1-2.5l-1.2-2.5l-1.2-2.4l-1.3-2.4l-1.4-2.4l-1.4-2.3l-1.5-2.3l-1.5-2.2l-0.4-0.5l2.6-1.9l3-2.3l2.9-2.4l2.8-2.5l2.7-2.6  l2.6-2.7l2.5-2.8l2.4-2.9l2.3-3l2.2-3.1l2.1-3.2l2-3.3l1.9-3.3l1.8-3.4l1.6-3.5l1.5-3.6l1.4-3.6l1.2-3.7l1.1-3.8l1-3.8l0.8-3.9  l0.7-3.9l0.5-4l0.3-3.5l1.7,0.2l2.2,0.2l2.2,0.1l2.2,0.1l2.3,0l3.5-0.1l3.5-0.2l3.5-0.3l3.5-0.4l3.5-0.5l3.4-0.6l3.4-0.8l3.3-0.9  l3.3-1l3.2-1.1l3.2-1.2l3.1-1.3l3.1-1.4l3-1.5l3-1.6l2.9-1.7l2.9-1.8l2.8-1.8l2.7-1.9l2.7-2l2.6-2.1l2.5-2.2l2.5-2.2l2.4-2.3  l2.2-2.3l2.3,2.3l2.4,2.2l2.5,2.2l2.5,2.1l2.6,2l2.6,1.9l2.7,1.8l2.8,1.8l2.8,1.7l2.9,1.6l2.9,1.5l3,1.4l3,1.3l3.1,1.2l3.1,1.1  l3.2,1l3.2,0.9l3.3,0.8l3.3,0.7l3.3,0.6l3.4,0.5l3.4,0.4l3.4,0.3l3.5,0.2l3.4,0.1l2.1,0l2-0.1l2-0.1l2-0.1l0.1,0l0.3,3.4l0.6,4  l0.7,4l0.8,3.9l1,3.9l1.1,3.8L239.9,79z M282.2,228.6c-39.6,0.8-72.5,29.4-80.1,67c-14.2-11.3-32.3-18.1-51.8-18.1  c-19.7,0-37.9,6.9-52.2,18.4c-7.4-37.8-40.5-66.5-80.2-67.4c6.4-11.8,10.1-25.3,10.1-39.7c0-24.8-10.9-47-28.1-62.4  c30.6-12.4,52.2-42.4,52.2-77.4c0-4.2-0.3-8.2-0.9-12.2c8.5,2.9,17.6,4.5,27,4.5c30.7,0,58.8-16.7,73.3-41.4  c13.7,23,55.8,40.2,71,40.2c8.5,0,16.8-1.3,24.5-3.7c-0.5,3.7-0.8,7.5-0.8,11.4c0,35.4,22.3,65.8,53.5,77.9  c-17.3,15.3-28.2,37.6-28.2,62.4C271.8,202.9,275.6,216.6,282.2,228.6z"
   id="path1" />
<polygon
   fill-rule="evenodd"
   clip-rule="evenodd"
   fill="#FFFFFF"
   points="139.3,222.5 130.5,217.9 217.8,68.2 224,64.9 224.5,71.6   "
   id="polygon2" />
<polygon
   fill-rule="evenodd"
   clip-rule="evenodd"
   fill="#FFFFFF"
   points="156.4,219.7 165.2,215.1 79.7,68.5 73.5,65.2 73,72 "
   id="polygon3" />
<path
   fill-rule="evenodd"
   clip-rule="evenodd"
   fill="#006536"
   d="M152.1,195.3l-0.1,0c-2.7,0-4.8,2.6-4.8,5.9l0,22  c0,7.7,18.1,7.8,16.1,0.3l-5.6-22.1C156.9,198.1,154.8,195.4,152.1,195.3"
   id="path3"
   style="fill:#008748;fill-opacity:1" />
<polygon
   fill-rule="evenodd"
   clip-rule="evenodd"
   fill="#FFFFFF"
   points="151.6,198.7 151.5,198.8 151.4,198.8 151.3,199   151.2,199.1 151.1,199.3 150.9,199.5 150.8,199.7 150.7,200 150.6,200.3 150.6,200.6 150.5,200.9 150.5,201.3 150.5,223.1   150.6,223.4 150.6,223.6 150.7,223.7 150.8,223.9 150.9,224.1 151.1,224.3 151.4,224.5 151.7,224.7 152.1,224.9 152.6,225.1   153.1,225.3 153.6,225.4 154.2,225.6 154.8,225.7 155.4,225.7 156.1,225.7 156.7,225.7 157.3,225.7 157.8,225.6 158.3,225.5   158.8,225.4 159.2,225.2 159.6,225.1 159.8,224.9 160,224.8 160.1,224.7 160.2,224.6 160.2,224.6 160.2,224.6 160.2,224.5   160.1,224.2 154.5,202.2 154.4,201.8 154.2,201.3 154.1,200.9 153.9,200.5 153.7,200.2 153.5,199.9 153.3,199.6 153.1,199.3   152.9,199.1 152.7,199 152.6,198.8 152.4,198.7 152.3,198.7 152.2,198.7 152.1,198.6 152,198.6 151.9,198.6 151.8,198.6   151.7,198.7 "
   id="polygon4" />
<path
   fill-rule="evenodd"
   clip-rule="evenodd"
   fill="#006536"
   d="M145.6,195.3l0.1,0c2.7,0,4.8,2.6,4.8,5.9l0,22  c0,7.7-18.1,7.8-16.1,0.3l5.6-22.1C140.9,198.1,143,195.4,145.6,195.3"
   id="path4"
   style="fill:#008748;fill-opacity:1" />
<polygon
   fill-rule="evenodd"
   clip-rule="evenodd"
   fill="#FFFFFF"
   points="146.1,198.7 146.2,198.8 146.3,198.8 146.5,199   146.6,199.1 146.7,199.3 146.8,199.5 146.9,199.7 147,200 147.1,200.3 147.2,200.6 147.2,200.9 147.2,201.3 147.2,223.1   147.2,223.4 147.2,223.6 147.1,223.7 147,223.9 146.9,224.1 146.7,224.3 146.4,224.5 146.1,224.7 145.7,224.9 145.2,225.1   144.7,225.3 144.1,225.4 143.5,225.6 142.9,225.6 142.3,225.7 141.7,225.7 141.1,225.7 140.5,225.7 139.9,225.6 139.4,225.5   138.9,225.4 138.5,225.2 138.2,225.1 137.9,224.9 137.7,224.8 137.6,224.7 137.6,224.6 137.6,224.6 137.6,224.6 137.6,224.5   137.6,224.2 143.2,202.3 143.4,201.8 143.5,201.3 143.7,200.9 143.9,200.5 144.1,200.2 144.3,199.9 144.5,199.6 144.7,199.3   144.8,199.1 145,198.9 145.2,198.8 145.3,198.7 145.4,198.7 145.5,198.7 145.6,198.6 145.8,198.6 145.9,198.6 146,198.6 146,198.7   "
   id="polygon5" />
<path
   fill-rule="evenodd"
   clip-rule="evenodd"
   fill="#006536"
   d="M154.3,201.6l5.3,20.6c0.7,2.9,7.9,2.3,10,1.1l0.1-0.1  c2.1-1.2,5.5-5.8,3.9-8.3l-11-16.4C159.6,194.1,153.3,195,154.3,201.6"
   id="path5"
   style="fill:#008748;fill-opacity:1" />
<polygon
   fill-rule="evenodd"
   clip-rule="evenodd"
   fill="#FFFFFF"
   points="168.7,220.1 168.8,219.9 168.9,219.8 169.1,219.6   169.3,219.4 169.4,219.3 169.6,219.1 169.7,218.9 169.9,218.7 170,218.5 170.1,218.2 170.3,218 170.4,217.8 170.5,217.6   170.6,217.4 170.6,217.3 170.7,217.1 170.7,216.9 170.8,216.8 170.8,216.7 170.8,216.7 159.9,200.6 159.7,200.3 159.6,200.1   159.4,199.9 159.2,199.8 159,199.6 158.9,199.5 158.7,199.4 158.5,199.3 158.4,199.3 158.3,199.2 158.1,199.2 158,199.2 158,199.2   157.9,199.2 157.8,199.2 157.8,199.2 157.8,199.2 157.8,199.2 157.8,199.2 157.7,199.2 157.7,199.2 157.7,199.2 157.7,199.2   157.7,199.3 157.7,199.4 157.6,199.5 157.6,199.6 157.5,199.8 157.5,200.1 157.5,200.4 157.5,200.7 157.6,201 162.7,220.8   162.8,220.8 162.9,220.9 163.2,220.9 163.4,220.9 163.7,221 164,221 164.2,221 164.6,221 164.9,221 165.2,221 165.5,221   165.8,220.9 166.1,220.9 166.5,220.9 166.7,220.8 167,220.8 167.3,220.7 167.5,220.7 167.7,220.6 167.9,220.5 168,220.5   168.1,220.5 168.2,220.4 168.2,220.4 168.2,220.4 168.3,220.3 168.4,220.3 168.5,220.2 "
   id="polygon6" />
<path
   fill-rule="evenodd"
   clip-rule="evenodd"
   fill="#006536"
   d="M143.5,201.6l-5.3,20.6c-0.7,2.9-7.9,2.3-10,1.1l-0.1-0.1  c-2.1-1.2-5.5-5.8-3.9-8.3l11-16.4C138.2,194.2,144.5,195,143.5,201.6"
   id="path6"
   style="fill:#008748;fill-opacity:1" />
<polygon
   fill-rule="evenodd"
   clip-rule="evenodd"
   fill="#FFFFFF"
   points="129.1,220.1 129,219.9 128.8,219.8 128.7,219.6   128.5,219.4 128.4,219.3 128.2,219.1 128,218.9 127.9,218.7 127.8,218.5 127.6,218.2 127.5,218 127.4,217.8 127.3,217.6   127.2,217.4 127.1,217.3 127.1,217.1 127,216.9 127,216.8 127,216.7 127,216.7 137.8,200.6 138,200.3 138.2,200.1 138.4,199.9   138.6,199.8 138.7,199.6 138.9,199.5 139.1,199.4 139.2,199.3 139.4,199.3 139.5,199.2 139.6,199.2 139.7,199.2 139.8,199.2   139.9,199.2 139.9,199.2 140,199.2 140,199.2 140,199.2 140,199.2 140,199.2 140,199.2 140,199.2 140,199.2 140.1,199.3   140.1,199.4 140.1,199.5 140.2,199.6 140.2,199.8 140.2,200.1 140.2,200.4 140.2,200.7 140.2,201 135.1,220.8 135,220.8   134.8,220.9 134.6,220.9 134.4,220.9 134.1,221 133.8,221 133.5,221 133.2,221 132.9,221 132.6,221 132.2,221 131.9,220.9   131.6,220.9 131.3,220.9 131,220.8 130.7,220.8 130.5,220.7 130.3,220.7 130.1,220.6 129.9,220.5 129.8,220.5 129.7,220.5   129.6,220.4 129.6,220.4 129.5,220.4 129.5,220.3 129.4,220.3 129.2,220.2 "
   id="polygon7" />
<path
   fill-rule="evenodd"
   clip-rule="evenodd"
   fill="#FFFFFF"
   d="M56,106.4c16.2,37.3,42.7,84,79.2,92.2c0,0,0,0,0,0.1l-11,16.4  c-0.2,0.3-0.4,0.7-0.4,1.1C77.4,192.3,58.7,147.2,56,106.4"
   id="path7" />
<path
   fill-rule="evenodd"
   clip-rule="evenodd"
   fill="#FFFFFF"
   d="M241.8,106.4c-16.2,37.3-42.7,84-79.2,92.2c0,0,0,0,0,0.1l11,16.4  c0.2,0.3,0.4,0.7,0.4,1.1C220.4,192.3,239.1,147.2,241.8,106.4"
   id="path8" />












<g
   id="g24">
	<polygon
   fill-rule="evenodd"
   clip-rule="evenodd"
   fill="#FFCA05"
   points="177.7,231.6 172.5,241 169.7,236.4  "
   id="polygon16" />
	<polygon
   fill-rule="evenodd"
   clip-rule="evenodd"
   fill="#FFCA05"
   points="178.1,233 180.4,237.4 175.9,246.4 173.4,242.2  "
   id="polygon17" />
	<polygon
   fill-rule="evenodd"
   clip-rule="evenodd"
   fill="#FFCA05"
   points="181.2,238.7 183.6,243.8 179.8,252.6 176.8,247.9  "
   id="polygon18" />
	<polygon
   fill-rule="evenodd"
   clip-rule="evenodd"
   fill="#FFCA05"
   points="184.5,245.4 186.7,249.8 180.7,254.2  "
   id="polygon19" />
	<path
   fill-rule="evenodd"
   clip-rule="evenodd"
   fill="#FFCA05"
   d="M187.6,251.3c2.8,5.3-3.5,9-6.1,4.1L187.6,251.3z"
   id="path19" />
	<path
   fill-rule="evenodd"
   clip-rule="evenodd"
   fill="#FFCA05"
   d="M158.3,231c-2.5,0.1-4.3,2.1-4.2,4.6c0.1,2.5,2.1,4.4,4.6,4.3   c1.1,0,2-0.4,2.6-0.8l22.6-12.6l0.5-0.9c0.8-0.9,1.4-2.1,1.4-3.4c-0.1-2.5-2.1-4.3-4.6-4.2c-2.5,0.1-4.4,2.1-4.3,4.6   c0,1,0.4,1.8,0.8,2.5l-15.2,8.6C162,232.1,160.3,230.9,158.3,231"
   id="path20" />
	<polygon
   fill-rule="evenodd"
   clip-rule="evenodd"
   fill="#FFCA05"
   points="122.5,231.6 127.6,241 130.5,236.4  "
   id="polygon20" />
	<polygon
   fill-rule="evenodd"
   clip-rule="evenodd"
   fill="#FFCA05"
   points="122,233 119.7,237.4 124.2,246.4 126.8,242.2  "
   id="polygon21" />
	<polygon
   fill-rule="evenodd"
   clip-rule="evenodd"
   fill="#FFCA05"
   points="119,238.7 116.6,243.8 120.4,252.6 123.3,247.9  "
   id="polygon22" />
	<polygon
   fill-rule="evenodd"
   clip-rule="evenodd"
   fill="#FFCA05"
   points="115.7,245.4 113.4,249.8 119.4,254.2  "
   id="polygon23" />
	<path
   fill-rule="evenodd"
   clip-rule="evenodd"
   fill="#FFCA05"
   d="M112.5,251.3c-2.8,5.3,3.5,9,6.1,4.1L112.5,251.3z"
   id="path23" />
	<path
   fill-rule="evenodd"
   clip-rule="evenodd"
   fill="#FFCA05"
   d="M141.8,231c2.5,0.1,4.3,2.1,4.2,4.6c-0.1,2.5-2.1,4.4-4.6,4.3   c-1.1,0-2-0.4-2.6-0.8l-22.6-12.6l-0.5-0.9c-0.8-0.9-1.4-2.1-1.4-3.4c0.1-2.5,2.1-4.3,4.6-4.2c2.5,0.1,4.4,2.1,4.3,4.6   c0,1-0.4,1.8-0.8,2.5l15.2,8.6C138.2,232.1,139.8,230.9,141.8,231"
   id="path24" />
</g>
<text
   xml:space="preserve"
   style="font-weight:bold;font-size:18.6667px;line-height:5.2;font-family:'Tw Cen MT';-inkscape-font-specification:'Tw Cen MT Bold';fill:#008748;fill-opacity:1;fill-rule:evenodd;stroke:none;stroke-width:0.223"
   x="193.37354"
   y="86.14032"
   id="text1"
   transform="rotate(40.257906)"><tspan
     sodipodi:role="line"
     id="tspan1"
     x="193.37354"
     y="86.14032">دايف</tspan></text><text
   xml:space="preserve"
   style="font-weight:bold;font-size:18.6667px;line-height:5.2;font-family:'Tw Cen MT';-inkscape-font-specification:'Tw Cen MT Bold';fill:#008748;fill-opacity:1;fill-rule:evenodd;stroke:none;stroke-width:0.223"
   x="39.320351"
   y="269.07666"
   id="text1-7"
   transform="rotate(-31.200361)"><tspan
     sodipodi:role="line"
     id="tspan1-8"
     x="39.320351"
     y="269.07666">ايتريس</tspan></text></svg>
